<svg viewBox="0 0 500 375" xmlns="http://www.w3.org/2000/svg">
  <defs>
    <linearGradient id="acBg" x1="0" y1="0" x2="1" y2="1">
      <stop offset="0%" stop-color="#7c3aed"/>
      <stop offset="100%" stop-color="#c026d3"/>
    </linearGradient>
  </defs>
  <rect width="500" height="375" fill="#0d0b17"/>
  <rect x="0" y="0" width="500" height="34" fill="#0a0812"/>
  <circle cx="18" cy="17" r="5" fill="#ff5f57"/>
  <circle cx="36" cy="17" r="5" fill="#febc2e"/>
  <circle cx="54" cy="17" r="5" fill="#28c840"/>
  <rect x="150" y="8" width="220" height="18" rx="9" fill="#1e1a2b"/>
  <text x="260" y="21" font-family="Poppins, Arial, sans-serif" font-size="10" fill="#a99fc2" text-anchor="middle">age-calculator.vercel.app</text>

  <rect x="130" y="65" width="240" height="270" rx="20" fill="url(#acBg)"/>
  <text x="250" y="105" font-family="Poppins, Arial, sans-serif" font-size="14" font-weight="700" fill="#ffffff" text-anchor="middle">Age Calculator</text>

  <rect x="155" y="125" width="190" height="30" rx="6" fill="#ffffff" opacity="0.15"/>
  <text x="165" y="145" font-family="Poppins, Arial, sans-serif" font-size="9" fill="#f3e8ff">Day    Month    Year</text>

  <rect x="155" y="165" width="190" height="34" rx="17" fill="#ffffff"/>
  <text x="250" y="187" font-family="Poppins, Arial, sans-serif" font-size="11" font-weight="600" fill="#7c3aed" text-anchor="middle">Calculate Age</text>

  <line x1="155" y1="215" x2="345" y2="215" stroke="#ffffff" stroke-width="1" opacity="0.3"/>

  <text x="250" y="250" font-family="Poppins, Arial, sans-serif" font-size="28" font-weight="800" fill="#ffffff" text-anchor="middle">21</text>
  <text x="250" y="264" font-family="Poppins, Arial, sans-serif" font-size="9" fill="#f3e8ff" text-anchor="middle">years</text>

  <text x="190" y="290" font-family="Poppins, Arial, sans-serif" font-size="16" font-weight="700" fill="#ffffff" text-anchor="middle">4</text>
  <text x="190" y="303" font-family="Poppins, Arial, sans-serif" font-size="8" fill="#f3e8ff" text-anchor="middle">months</text>
  <text x="250" y="290" font-family="Poppins, Arial, sans-serif" font-size="16" font-weight="700" fill="#ffffff" text-anchor="middle">12</text>
  <text x="250" y="303" font-family="Poppins, Arial, sans-serif" font-size="8" fill="#f3e8ff" text-anchor="middle">days</text>
</svg>
